<?xml version="1.0" encoding="UTF-8"?>
<svg id="Layer_2" data-name="Layer 2" xmlns="http://www.w3.org/2000/svg" viewBox="0 0 301.39 113.4"><style>path,polygon{fill:#141414}@media(prefers-color-scheme:dark){path,polygon{fill:#e8ebdb}}</style>
  <g id="mono">
    <g id="mono-2" data-name="mono">
      <g>
        <path d="M206.84,113.4h21.01c4.56,0,8.63-.74,12.79-2.11h15.88c2-.75,3.98-1.64,5.91-2.68h-72.29c4.46,3.11,9.92,4.8,16.7,4.8Z"/>
        <path d="M298.83,18.57c-.34-.93-.7-1.82-1.1-2.68h-14.07c-.64-1.45-1.35-2.81-2.16-4.08h-21.06c-.74-1.14-1.52-2.24-2.39-3.23h-46.29c-3.77,2.65-7.36,5.88-10.69,9.6l-.1.36,97.87.03Z"/>
        <path d="M183.64,101.89h52.51c1.22-1.02,2.41-2.12,3.59-3.26h21.04c1.3-1.26,2.55-2.62,3.78-4.03h14.81c.74-.87,1.47-1.77,2.18-2.68l-100.53.02-.77,3.05c.89,2.54,2.02,4.85,3.39,6.91Z"/>
        <path d="M263.61,0h-28.47c-3.38,0-6.71.65-9.95,1.87l46.83-.03c-2.33-.84-5.62-1.84-8.41-1.84Z"/>
        <path d="M217.96,35.21c.9-1.08,1.8-2,2.71-2.71.88-.69,2.06-1.39,3.33-1.98,1.12-.57,2.3-.97,3.54-1.17.5-.09.99-.16,1.44-.16.06,0,.13,0,.19.01.08,0,.15-.01.23-.01,3.4,0,5.55,1.51,6.81,3.89,0,0,.01.01.01.02.01.02.02.04.03.06.11.21.21.42.3.64.2.44.38.91.53,1.41l64.29-.03c0-.91,0-1.8-.04-2.68h-14.28c-.02-1.39-.06-2.76-.14-4.08h-21.15c-.11-1.08-.24-2.14-.41-3.17h-66.21l-2.67,9.96h21.46Z"/>
        <path d="M224.03,79.89s0,0,0,0c0,0,0,0,0,0,0,0-.01.01-.02.02-3.1,3.34-6.02,4.2-9.02,4.28-.11,0-.21.01-.32.01-.02,0-.03,0-.05,0-.02,0-.04,0-.06,0-.11,0-.21-.02-.31-.02-.26,0-.52-.02-.76-.05-.09-.01-.18-.03-.26-.04-3.13-.43-5.03-2.3-6.06-4.97,0,0,0,0,0-.01,0,0,0,0,0,0-.44-1.15-.73-2.46-.89-3.85h-7.98l-2.67,9.96h54.96c.68-1.06,1.33-2.15,1.97-3.26h21.02c.76-1.31,1.48-2.66,2.19-4.03h14.6c.45-.88.88-1.78,1.31-2.68l-63.96.02c-1.11,1.72-2.33,3.3-3.67,4.63Z"/>
        <path d="M231.31,68.55h27.67c.41-1.04.78-2.12,1.15-3.18h21.04c.48-1.34.92-2.71,1.35-4.09h14.48c.27-.89.53-1.78.78-2.68h-62.64c-1.01,3.41-2.33,6.81-3.84,9.96Z"/>
        <path d="M195.39,61.2c1.65,0,3.13.71,4.08,1.95.97,1.26,1.27,2.93.83,4.58l-.22.83h6.21c.28-2.97.85-6.02,1.49-8.78.08-.4.17-.79.25-1.18h-17.8l-.7,2.6h5.86Z"/>
        <path d="M286.28,45.07h-21.02c.16-1.06.3-2.12.41-3.15h-27.73c-.02,3-.42,6.37-1.13,9.96l62.66-.05c.19-.9.37-1.8.53-2.68h-14.41c.26-1.38.51-2.74.7-4.08Z"/>
        <path d="M209.75,51.88c1.14-3.73,2.47-7.08,3.93-9.96h-18.99l-2.67,9.96h17.73Z"/>
      </g>
      <path d="M58.48,72.7c.09-.04.18-.08.27-.11C100.74,56.99,109.44.89,66.33,1.11c-23.38-.23-45.06,19.02-51.04,43.17-.28,1.14.32,2.09,1.4,2.27l16.68,2.84c1.17.2,2.55-.57,3.16-1.78,13.86-27.22,33.91-23,30-10.53-1.35,4.32-5.89,7.35-14.85,12.77C23.72,65.63,6.34,82.25.06,110.04c-.29,1.27.51,2.26,1.78,2.26h67.36c1.32,0,2.67-1.07,3.02-2.38l6.51-24.3c.35-1.32-.43-2.38-1.74-2.38h-29.78c-2.28,0-2.48-2.88-.31-4.27,3.51-2.25,7.49-4.23,11.59-6.26Z"/>
      <path d="M107.88,78.96c3.51-2.24,7.49-4.23,11.59-6.26.09-.04.18-.08.27-.11C161.72,56.99,170.42.89,127.31,1.11c-11.88-.12-23.31,4.8-32.48,12.83.94,2.05,1.65,4.27,2.08,6.67,1.57,8.75-.57,18.89-5.88,28.21l3.3.56c1.17.2,2.55-.57,3.16-1.78,13.86-27.22,33.91-23,30-10.53-1.35,4.32-5.89,7.35-14.85,12.77-16.38,9.25-29.1,18.8-38.11,30.7h2.45c1.45,0,2.77.63,3.61,1.72.85,1.11,1.12,2.59.73,4.04l-6.51,24.3c-.16.61-.43,1.17-.78,1.69h56.14c1.32,0,2.67-1.07,3.02-2.38l6.51-24.3c.35-1.32-.43-2.38-1.74-2.38h-29.78c-2.28,0-2.48-2.88-.31-4.27Z"/>
      <g>
        <polygon points="148.68 105.92 174.5 105.92 178.24 91.93 152.43 91.93 148.68 105.92"/>
        <path d="M149.99,112.3h20.33c1.48,0,3-1.65,3.44-3.7h-25.8c-.35,2.05.54,3.7,2.02,3.7Z"/>
        <path d="M199.56,1.1h-19.27c-.88,0-1.81.53-2.52,1.44l-2.62,3.35h26.14l.27-1.29c.41-1.93-.49-3.5-2.01-3.5Z"/>
        <polygon points="158.53 22.57 196.83 22.57 200.58 8.58 172.48 8.58 158.53 22.57"/>
        <path d="M192.36,39.24l3.75-13.99h-37.74c.15,4.51-.56,9.25-2.1,13.99h36.09Z"/>
        <path d="M110.4,80.55h27.56c1.45,0,2.77.63,3.61,1.72.85,1.11,1.12,2.59.73,4.04l-.79,2.94h49.93l3.75-13.99h-74.85c-3.39,1.68-6.87,3.42-9.95,5.29Z"/>
        <path d="M195.4,64.26h-9.74l1.52-5.67h-25.82l-1.52,5.67h-14.16c2.1-1.89,4.19-3.78,6.28-5.67h-6.98c-5.13,5.74-11.43,10.51-18.48,13.99h69.42l1.49-5.57c.41-1.51-.49-2.74-2.01-2.74Z"/>
        <path d="M164.36,47.41l-2.28,8.5h25.82l3.75-13.99h-36.32c-1.25,3.21-2.86,6.38-4.83,9.44-1.01,1.57-2.1,3.08-3.26,4.55h7.7c3.14-2.83,6.28-5.67,9.42-8.5Z"/>
      </g>
    </g>
  </g>
</svg>